<svg width="20" height="20" viewBox="0 0 20 20" fill="none" xmlns="http://www.w3.org/2000/svg">
<path d="M13.4916 1.66663H6.50829C3.47496 1.66663 1.66663 3.47496 1.66663 6.50829V13.4833C1.66663 16.525 3.47496 18.3333 6.50829 18.3333H13.4833C16.5166 18.3333 18.325 16.525 18.325 13.4916V6.50829C18.3333 3.47496 16.525 1.66663 13.4916 1.66663ZM13.3333 10.625H10.625V13.3333C10.625 13.675 10.3416 13.9583 9.99996 13.9583C9.65829 13.9583 9.37496 13.675 9.37496 13.3333V10.625H6.66663C6.32496 10.625 6.04163 10.3416 6.04163 9.99996C6.04163 9.65829 6.32496 9.37496 6.66663 9.37496H9.37496V6.66663C9.37496 6.32496 9.65829 6.04163 9.99996 6.04163C10.3416 6.04163 10.625 6.32496 10.625 6.66663V9.37496H13.3333C13.675 9.37496 13.9583 9.65829 13.9583 9.99996C13.9583 10.3416 13.675 10.625 13.3333 10.625Z" fill="#696677"/>
</svg>
