<svg width="83" height="16" viewBox="0 0 83 16" fill="none" xmlns="http://www.w3.org/2000/svg">
<path d="M8 16C12.4183 16 16 12.4183 16 8C16 3.58172 12.4183 0 8 0C3.58172 0 0 3.58172 0 8C0 12.4183 3.58172 16 8 16Z" fill="#F3B619"/>
<g clip-path="url(#clip0_831_732)">
<path d="M12.872 5.29346C12.9031 4.69913 12.6473 4.38669 12.427 4.22948C11.7539 3.7485 10.5475 4.04764 9.9068 4.26004C9.50516 3.25717 8.8512 2.70966 8.00307 2.70966C7.32891 2.70966 6.71585 3.28969 6.27577 4.34332C6.11561 4.28221 5.95741 4.22702 5.80316 4.17971C4.62387 3.81848 3.74716 3.91458 3.33369 4.44928C2.92022 4.98398 3.04983 5.85724 3.69738 6.90692C3.93098 7.2854 4.22272 7.67423 4.56227 8.06207C4.22814 8.45928 3.95315 8.84811 3.73188 9.23644C3.45837 9.71644 3.15726 10.3482 3.25977 10.9815C3.31743 11.3363 3.49878 11.6138 3.78313 11.7843C4.03595 11.9361 4.34839 11.9917 4.67167 11.9917C5.21771 11.9917 5.79528 11.8321 6.17228 11.7035C6.20825 11.6911 6.24423 11.6783 6.2802 11.6655C6.72028 12.7137 7.33186 13.2908 8.00356 13.2908C8.67526 13.2908 9.30311 12.8517 9.72347 12.0538C9.77571 11.9548 9.82499 11.8498 9.87082 11.7404C9.91961 11.7567 9.96889 11.7729 10.0172 11.7877C10.4868 11.9316 10.9082 12.0026 11.2719 12.0026C11.8214 12.0026 12.2378 11.84 12.4862 11.5177C12.8991 10.983 12.7705 10.1102 12.123 9.06051C11.9219 8.73476 11.677 8.40113 11.3971 8.06749C11.7258 7.69493 12.0047 7.32532 12.2403 6.95128C12.5172 6.51021 12.84 5.92278 12.8725 5.29346H12.872ZM10.3395 8.38634C10.3183 8.40704 10.2971 8.42626 10.2759 8.44647C10.1601 8.25427 9.9413 8.12367 9.69045 8.12367H8.05087C7.89515 8.12466 7.76849 8.2518 7.768 8.40753C7.76751 8.56425 7.89465 8.69238 8.05285 8.69336H9.69243C9.756 8.69336 9.79641 8.73279 9.79641 8.76383C9.79641 8.80572 9.79542 8.84712 9.79493 8.88901C9.20701 9.40597 8.60085 9.8564 7.9873 10.2344C7.60242 9.99586 7.2062 9.72284 6.80554 9.41336C6.61334 9.26502 6.42756 9.11324 6.24719 8.95899C6.22205 8.65246 6.20825 8.33164 6.20825 7.99899C6.20825 6.85616 6.36793 5.85576 6.61532 5.07318C7.39248 5.43096 8.21744 5.93757 9.01432 6.55309C9.63378 7.03161 10.1936 7.54314 10.6677 8.05764C10.5632 8.16606 10.4538 8.27546 10.34 8.38536L10.3395 8.38634ZM9.76191 9.62872C9.71953 10.1486 9.63772 10.6198 9.51846 11.0298C9.20011 10.8982 8.86401 10.7361 8.51412 10.5429C8.93547 10.2699 9.35239 9.96432 9.76191 9.62872ZM7.45901 10.5404C7.18057 10.6917 6.90115 10.8277 6.62271 10.9475C6.50788 10.5882 6.41129 10.1821 6.34082 9.73714C6.38517 9.77213 6.42953 9.80761 6.47437 9.8426C6.79913 10.0934 7.12882 10.3265 7.45901 10.5409V10.5404ZM5.64793 8.41542C5.52423 8.29616 5.40497 8.17591 5.29015 8.05567C5.40251 7.93394 5.52029 7.81123 5.64497 7.68655C5.64251 7.79103 5.64054 7.8955 5.64054 8.00096C5.64054 8.13994 5.64349 8.27792 5.64793 8.41542ZM4.15915 6.62208C3.65402 5.80254 3.50617 5.11408 3.76342 4.78094C3.90387 4.5986 4.17787 4.50694 4.54699 4.50694C4.85401 4.50694 5.22707 4.57051 5.64497 4.69815C5.79035 4.7425 5.93869 4.79474 6.08998 4.8524C5.89384 5.45954 5.75832 6.1549 5.6908 6.8951C5.55972 7.01436 5.43011 7.13608 5.30444 7.26027C5.17138 7.39234 5.04473 7.52294 4.92448 7.65255C4.62535 7.30561 4.36711 6.95916 4.15915 6.62208ZM4.06206 11.3186C3.91274 11.2289 3.82749 11.0938 3.79496 10.8938C3.71956 10.4281 3.97336 9.90666 4.20301 9.50404C4.39816 9.16153 4.63964 8.81706 4.93187 8.46371C5.1704 8.71209 5.42715 8.9585 5.69967 9.19997C5.77015 9.90765 5.9037 10.572 6.09244 11.155C6.06041 11.1663 6.02838 11.1786 5.99635 11.1894C5.13886 11.4822 4.41541 11.5305 4.06157 11.3181L4.06206 11.3186ZM9.22081 11.7872C8.90491 12.3875 8.47272 12.7181 8.00406 12.7181C7.58911 12.7181 7.151 12.2549 6.81145 11.4566C7.20422 11.289 7.59699 11.0919 7.98779 10.8657C8.44611 11.1338 8.89999 11.3614 9.33711 11.5408C9.30015 11.6266 9.26171 11.7089 9.22081 11.7867V11.7872ZM11.6617 9.34437C12.1668 10.1639 12.3147 10.8524 12.0574 11.1855C11.7874 11.5354 11.0442 11.5531 10.0522 11.2279C10.2316 10.6252 10.3355 9.9106 10.3592 9.11127C10.4794 9.00186 10.5987 8.88999 10.7175 8.77517C10.8244 8.67168 10.9274 8.56917 11.0265 8.46667C11.2709 8.76236 11.4848 9.05656 11.6617 9.34387V9.34437ZM11.0348 7.65698C10.5465 7.13066 9.9753 6.60976 9.34598 6.12385C8.50426 5.47383 7.62903 4.93913 6.8016 4.56262C7.14213 3.75096 7.58467 3.27885 8.00356 3.27885C8.97933 3.27885 9.62048 4.39556 9.7629 6.34216L9.76684 6.37321C9.78902 6.48853 9.87772 6.57773 9.99452 6.5999C10.1493 6.62849 10.2986 6.52647 10.3272 6.37173L10.3336 6.33724L10.3311 6.30225C10.2892 5.7296 10.2045 5.21806 10.0798 4.77305C10.7741 4.54538 11.7041 4.37881 12.1116 4.66956C12.2738 4.78537 12.3452 4.97954 12.3304 5.26389C12.3038 5.76853 12.0224 6.27563 11.7805 6.66101C11.571 6.99317 11.3236 7.32286 11.0339 7.65649L11.0348 7.65698Z" fill="#24222C"/>
</g>
<path d="M27.0227 6.5C26.929 6.21307 26.8054 5.95597 26.652 5.72869C26.5014 5.49858 26.321 5.30256 26.1108 5.14062C25.9034 4.97869 25.6676 4.85511 25.4034 4.76989C25.1392 4.68466 24.8494 4.64205 24.5341 4.64205C24.017 4.64205 23.5469 4.77557 23.1236 5.04261C22.7003 5.30966 22.3636 5.70312 22.1136 6.22301C21.8636 6.7429 21.7386 7.38068 21.7386 8.13636C21.7386 8.89205 21.8651 9.52983 22.1179 10.0497C22.3707 10.5696 22.7131 10.9631 23.1449 11.2301C23.5767 11.4972 24.0625 11.6307 24.6023 11.6307C25.1023 11.6307 25.5426 11.5241 25.9233 11.3111C26.3068 11.0952 26.6051 10.7912 26.8182 10.3991C27.0341 10.0043 27.142 9.53977 27.142 9.00568L27.4659 9.07386H24.8409V8.13636H28.1648V9.07386C28.1648 9.79261 28.0114 10.4176 27.7045 10.9489C27.4006 11.4801 26.9801 11.892 26.4432 12.1847C25.9091 12.4744 25.2955 12.6193 24.6023 12.6193C23.8295 12.6193 23.1506 12.4375 22.5653 12.0739C21.983 11.7102 21.5284 11.1932 21.2017 10.5227C20.8778 9.85227 20.7159 9.05682 20.7159 8.13636C20.7159 7.44602 20.8082 6.82528 20.9929 6.27415C21.1804 5.72017 21.4446 5.24858 21.7855 4.85938C22.1264 4.47017 22.5298 4.17188 22.9957 3.96449C23.4616 3.7571 23.9744 3.65341 24.5341 3.65341C24.9943 3.65341 25.4233 3.72301 25.821 3.86222C26.2216 3.99858 26.5781 4.19318 26.8906 4.44602C27.206 4.69602 27.4688 4.99574 27.679 5.34517C27.8892 5.69176 28.0341 6.0767 28.1136 6.5H27.0227ZM30.8441 3.77273V12.5H29.8384V3.77273H30.8441ZM36.8111 9.82386V5.95455H37.8168V12.5H36.8111V11.392H36.7429C36.5895 11.7244 36.3509 12.0071 36.027 12.2401C35.7031 12.4702 35.294 12.5852 34.7997 12.5852C34.3906 12.5852 34.027 12.4957 33.7088 12.3168C33.3906 12.1349 33.1406 11.8622 32.9588 11.4986C32.777 11.1321 32.6861 10.6705 32.6861 10.1136V5.95455H33.6918V10.0455C33.6918 10.5227 33.8253 10.9034 34.0923 11.1875C34.3622 11.4716 34.706 11.6136 35.1236 11.6136C35.3736 11.6136 35.6278 11.5497 35.8864 11.4219C36.1477 11.294 36.3665 11.098 36.5426 10.8338C36.7216 10.5696 36.8111 10.233 36.8111 9.82386ZM42.3178 12.6364C41.7269 12.6364 41.2085 12.4957 40.7624 12.2145C40.3192 11.9332 39.9727 11.5398 39.7227 11.0341C39.4755 10.5284 39.3519 9.9375 39.3519 9.26136C39.3519 8.57955 39.4755 7.98437 39.7227 7.47585C39.9727 6.96733 40.3192 6.57244 40.7624 6.29119C41.2085 6.00994 41.7269 5.86932 42.3178 5.86932C42.9087 5.86932 43.4258 6.00994 43.869 6.29119C44.315 6.57244 44.6616 6.96733 44.9087 7.47585C45.1587 7.98437 45.2837 8.57955 45.2837 9.26136C45.2837 9.9375 45.1587 10.5284 44.9087 11.0341C44.6616 11.5398 44.315 11.9332 43.869 12.2145C43.4258 12.4957 42.9087 12.6364 42.3178 12.6364ZM42.3178 11.733C42.7667 11.733 43.136 11.6179 43.4258 11.3878C43.7156 11.1577 43.93 10.8551 44.0692 10.4801C44.2085 10.1051 44.2781 9.69886 44.2781 9.26136C44.2781 8.82386 44.2085 8.41619 44.0692 8.03835C43.93 7.66051 43.7156 7.35511 43.4258 7.12216C43.136 6.8892 42.7667 6.77273 42.3178 6.77273C41.869 6.77273 41.4996 6.8892 41.2099 7.12216C40.9201 7.35511 40.7056 7.66051 40.5664 8.03835C40.4272 8.41619 40.3576 8.82386 40.3576 9.26136C40.3576 9.69886 40.4272 10.1051 40.5664 10.4801C40.7056 10.8551 40.9201 11.1577 41.2099 11.3878C41.4996 11.6179 41.869 11.733 42.3178 11.733ZM47.8246 8.5625V12.5H46.8189V5.95455H47.7905V6.97727H47.8757C48.0291 6.64489 48.2621 6.37784 48.5746 6.17614C48.8871 5.97159 49.2905 5.86932 49.7848 5.86932C50.228 5.86932 50.6158 5.96023 50.9482 6.14205C51.2805 6.32102 51.5391 6.59375 51.7237 6.96023C51.9084 7.32386 52.0007 7.78409 52.0007 8.34091V12.5H50.995V8.40909C50.995 7.89489 50.8615 7.49432 50.5945 7.20739C50.3274 6.91761 49.9609 6.77273 49.495 6.77273C49.174 6.77273 48.8871 6.84233 48.6342 6.98153C48.3842 7.12074 48.1868 7.32386 48.0419 7.59091C47.897 7.85795 47.8246 8.18182 47.8246 8.5625ZM63.3157 6.5C63.2219 6.21307 63.0984 5.95597 62.945 5.72869C62.7944 5.49858 62.614 5.30256 62.4038 5.14062C62.1964 4.97869 61.9606 4.85511 61.6964 4.76989C61.4322 4.68466 61.1424 4.64205 60.8271 4.64205C60.31 4.64205 59.8398 4.77557 59.4165 5.04261C58.9933 5.30966 58.6566 5.70312 58.4066 6.22301C58.1566 6.7429 58.0316 7.38068 58.0316 8.13636C58.0316 8.89205 58.158 9.52983 58.4109 10.0497C58.6637 10.5696 59.006 10.9631 59.4379 11.2301C59.8697 11.4972 60.3555 11.6307 60.8952 11.6307C61.3952 11.6307 61.8356 11.5241 62.2163 11.3111C62.5998 11.0952 62.8981 10.7912 63.1112 10.3991C63.3271 10.0043 63.435 9.53977 63.435 9.00568L63.7589 9.07386H61.1339V8.13636H64.4577V9.07386C64.4577 9.79261 64.3043 10.4176 63.9975 10.9489C63.6935 11.4801 63.2731 11.892 62.7362 12.1847C62.2021 12.4744 61.5884 12.6193 60.8952 12.6193C60.1225 12.6193 59.4435 12.4375 58.8583 12.0739C58.2759 11.7102 57.8214 11.1932 57.4947 10.5227C57.1708 9.85227 57.0089 9.05682 57.0089 8.13636C57.0089 7.44602 57.1012 6.82528 57.2859 6.27415C57.4734 5.72017 57.7376 5.24858 58.0785 4.85938C58.4194 4.47017 58.8228 4.17188 59.2887 3.96449C59.7546 3.7571 60.2674 3.65341 60.8271 3.65341C61.2873 3.65341 61.7163 3.72301 62.114 3.86222C62.5146 3.99858 62.8711 4.19318 63.1836 4.44602C63.4989 4.69602 63.7617 4.99574 63.9719 5.34517C64.1822 5.69176 64.3271 6.0767 64.4066 6.5H63.3157ZM68.7905 12.6364C68.1996 12.6364 67.6811 12.4957 67.2351 12.2145C66.7919 11.9332 66.4453 11.5398 66.1953 11.0341C65.9482 10.5284 65.8246 9.9375 65.8246 9.26136C65.8246 8.57955 65.9482 7.98437 66.1953 7.47585C66.4453 6.96733 66.7919 6.57244 67.2351 6.29119C67.6811 6.00994 68.1996 5.86932 68.7905 5.86932C69.3814 5.86932 69.8984 6.00994 70.3416 6.29119C70.7876 6.57244 71.1342 6.96733 71.3814 7.47585C71.6314 7.98437 71.7564 8.57955 71.7564 9.26136C71.7564 9.9375 71.6314 10.5284 71.3814 11.0341C71.1342 11.5398 70.7876 11.9332 70.3416 12.2145C69.8984 12.4957 69.3814 12.6364 68.7905 12.6364ZM68.7905 11.733C69.2393 11.733 69.6087 11.6179 69.8984 11.3878C70.1882 11.1577 70.4027 10.8551 70.5419 10.4801C70.6811 10.1051 70.7507 9.69886 70.7507 9.26136C70.7507 8.82386 70.6811 8.41619 70.5419 8.03835C70.4027 7.66051 70.1882 7.35511 69.8984 7.12216C69.6087 6.8892 69.2393 6.77273 68.7905 6.77273C68.3416 6.77273 67.9723 6.8892 67.6825 7.12216C67.3928 7.35511 67.1783 7.66051 67.0391 8.03835C66.8999 8.41619 66.8303 8.82386 66.8303 9.26136C66.8303 9.69886 66.8999 10.1051 67.0391 10.4801C67.1783 10.8551 67.3928 11.1577 67.6825 11.3878C67.9723 11.6179 68.3416 11.733 68.7905 11.733ZM74.2972 3.77273V12.5H73.2915V3.77273H74.2972ZM78.6108 12.6364C78.0653 12.6364 77.5838 12.4986 77.1662 12.223C76.7486 11.9446 76.4219 11.5526 76.1861 11.0469C75.9503 10.5384 75.8324 9.9375 75.8324 9.24432C75.8324 8.55682 75.9503 7.96023 76.1861 7.45455C76.4219 6.94886 76.75 6.55824 77.1705 6.28267C77.5909 6.0071 78.0767 5.86932 78.6278 5.86932C79.054 5.86932 79.3906 5.94034 79.6378 6.08239C79.8878 6.22159 80.0781 6.38068 80.2088 6.55966C80.3423 6.7358 80.446 6.88068 80.5199 6.99432H80.6051V3.77273H81.6108V12.5H80.6392V11.4943H80.5199C80.446 11.6136 80.3409 11.7642 80.2045 11.946C80.0682 12.125 79.8736 12.2855 79.6207 12.4276C79.3679 12.5668 79.0313 12.6364 78.6108 12.6364ZM78.7472 11.733C79.1506 11.733 79.4915 11.6278 79.7699 11.4176C80.0483 11.2045 80.2599 10.9105 80.4048 10.5355C80.5497 10.1577 80.6222 9.72159 80.6222 9.22727C80.6222 8.73864 80.5511 8.31108 80.4091 7.9446C80.267 7.57528 80.0568 7.28835 79.7784 7.08381C79.5 6.87642 79.1563 6.77273 78.7472 6.77273C78.321 6.77273 77.9659 6.8821 77.6818 7.10085C77.4006 7.31676 77.1889 7.6108 77.0469 7.98295C76.9077 8.35227 76.8381 8.76705 76.8381 9.22727C76.8381 9.69318 76.9091 10.1165 77.0511 10.4972C77.196 10.875 77.4091 11.1761 77.6903 11.4006C77.9744 11.6222 78.3267 11.733 78.7472 11.733Z" fill="#F3B619"/>
<defs>
<clipPath id="clip0_831_732">
<rect width="9.77835" height="10.5806" fill="white" transform="translate(3.09668 2.70966)"/>
</clipPath>
</defs>
</svg>
