<svg width="120" height="32" viewBox="0 0 83 16" fill="none" xmlns="http://www.w3.org/2000/svg">
<g clip-path="url(#clip0_487_363)">
<path d="M7.99969 15.9994C12.4178 15.9994 15.9994 12.4178 15.9994 7.99969C15.9994 3.58159 12.4178 0 7.99969 0C3.58159 0 0 3.58159 0 7.99969C0 12.4178 3.58159 15.9994 7.99969 15.9994Z" fill="#878494"/>
<path fill-rule="evenodd" clip-rule="evenodd" d="M10.5611 6.05779C10.4634 4.72551 10.1785 3.6526 9.71874 2.90594C9.2542 2.15159 8.60268 1.72119 7.79766 1.72119C7.36559 1.72119 6.97341 1.93264 6.63747 2.27409C6.30224 2.61482 6.01018 3.09677 5.76946 3.67478C5.28763 4.83175 4.99463 6.41434 4.99463 8.14853C4.99463 9.88278 5.28826 11.4652 5.7704 12.622C6.01127 13.1999 6.3034 13.6818 6.63848 14.0224C6.97425 14.3638 7.36612 14.5753 7.79766 14.5753C8.62923 14.5753 9.34078 14.0229 9.82073 13.1116L9.82076 13.1115C10.3374 12.1298 10.6007 10.7364 10.6007 9.09609V9.09121C10.6007 8.70458 10.2617 8.42553 9.88865 8.42553H7.86274C7.83379 8.42525 7.80502 8.43043 7.77795 8.4408C7.74899 8.45191 7.72259 8.46873 7.70031 8.49024C7.67802 8.51177 7.66029 8.53756 7.64818 8.5661C7.6361 8.59458 7.62987 8.62521 7.62987 8.65617M10.5611 6.05779C10.5633 6.08809 10.5595 6.11849 10.55 6.14724C10.5404 6.17604 10.5253 6.20272 10.5053 6.22571C10.4854 6.24868 10.4612 6.26748 10.434 6.28104C10.4068 6.29462 10.3772 6.30267 10.3469 6.30475L10.3441 6.30495L10.3412 6.30507C10.2834 6.30751 10.2268 6.28825 10.1825 6.25106C10.1381 6.21388 10.1093 6.16146 10.1016 6.10413L10.1008 6.0978L10.1003 6.09143C10.0061 4.80395 9.73386 3.81543 9.32964 3.15564C8.93001 2.50334 8.41085 2.18308 7.79766 2.18308C7.52102 2.18308 7.23709 2.3184 6.9574 2.60502C6.67709 2.89226 6.41459 3.31887 6.18948 3.863C5.73967 4.95028 5.4559 6.46608 5.4559 8.14853C5.4559 9.831 5.73938 11.3466 6.18903 12.4338C6.41406 12.9778 6.67651 13.4043 6.95685 13.6915C7.23657 13.978 7.52066 14.1134 7.79766 14.1134C8.40073 14.1134 8.98163 13.7138 9.41229 12.8955L9.41231 12.8955C9.8816 12.004 10.1394 10.6945 10.1394 9.09548V9.09121C10.1394 9.00006 10.0484 8.88742 9.88865 8.88742H7.86112C7.79978 8.88742 7.74096 8.86305 7.6976 8.81969C7.65426 8.77634 7.62991 8.71757 7.62987 8.65631" fill="#24222C"/>
<path fill-rule="evenodd" clip-rule="evenodd" d="M2.48963 11.1852C2.4107 11.6051 2.46928 11.9198 2.63578 12.1357C2.80227 12.3516 3.09171 12.4882 3.5179 12.5185C3.94385 12.5489 4.48094 12.4702 5.09754 12.2819C6.32914 11.9057 7.83297 11.1064 9.30987 9.96737C10.7868 8.82836 11.942 7.57701 12.6187 6.48139C12.9575 5.93288 13.1701 5.43342 13.249 5.01374C13.328 4.59383 13.2694 4.27917 13.1029 4.06329C12.9364 3.8474 12.6469 3.71079 12.2208 3.68043C11.7948 3.65009 11.2577 3.72882 10.6411 3.91712C9.40951 4.29323 7.90569 5.09259 6.42879 6.2316C4.95188 7.37062 3.79664 8.62197 3.11993 9.71759C2.78114 10.2661 2.56852 10.7656 2.48963 11.1852ZM2.75655 9.49314C3.46663 8.3435 4.66105 7.05554 6.16795 5.8934C7.67485 4.73125 9.22403 3.9033 10.5164 3.50863C11.1618 3.31154 11.7544 3.21902 12.2511 3.2544C12.7476 3.28977 13.1738 3.45584 13.4411 3.80245C13.7084 4.14907 13.7607 4.60347 13.6688 5.09264C13.5768 5.58205 13.3367 6.13171 12.9821 6.70583C12.272 7.85548 11.0776 9.14344 9.5707 10.3056C8.0638 11.4677 6.51463 12.2957 5.22228 12.6903C4.5769 12.8874 3.98428 12.98 3.48755 12.9446C2.99107 12.9092 2.56488 12.7431 2.29757 12.3965C2.03025 12.0499 1.97792 11.5955 2.06987 11.1063C2.16187 10.6169 2.40194 10.0673 2.75655 9.49314Z" fill="#24222C"/>
<path fill-rule="evenodd" clip-rule="evenodd" d="M3.12823 6.57514C3.80494 7.67076 4.96018 8.92211 6.43709 10.0611C7.91399 11.2001 9.41781 11.9995 10.6494 12.3756C11.266 12.5639 11.8031 12.6426 12.2291 12.6123C12.6552 12.5819 12.9447 12.4453 13.1112 12.2294C13.2777 12.0136 13.3363 11.6989 13.2573 11.279C13.1784 10.8593 12.9658 10.3598 12.627 9.81133C11.9503 8.71572 10.7951 7.46437 9.31817 6.32535C7.84127 5.18634 6.33745 4.38698 5.10584 4.01087C4.48924 3.82257 3.95215 3.74384 3.5262 3.77418C3.10001 3.80453 2.81057 3.94115 2.64408 4.15703C2.47758 4.37292 2.419 4.68758 2.49793 5.10749C2.57682 5.52717 2.78944 6.02663 3.12823 6.57514ZM2.07817 5.18639C1.98622 4.69721 2.03855 4.24281 2.30587 3.8962C2.57318 3.54959 2.99937 3.38351 3.49586 3.34815C3.99258 3.31277 4.5852 3.40529 5.23058 3.60238C6.52293 3.99704 8.0721 4.825 9.57901 5.98714C11.0859 7.14929 12.2803 8.43724 12.9904 9.58689C13.345 10.161 13.5851 10.7107 13.6771 11.2001C13.769 11.6893 13.7167 12.1437 13.4494 12.4903C13.1821 12.8369 12.7559 13.003 12.2594 13.0383C11.7627 13.0737 11.1701 12.9812 10.5247 12.7841C9.23233 12.3894 7.68315 11.5615 6.17625 10.3993C4.66935 9.23718 3.47494 7.94923 2.76485 6.79958C2.41024 6.22546 2.17017 5.6758 2.07817 5.18639Z" fill="#24222C"/>
</g>
<path d="M27.0227 6.5C26.929 6.21307 26.8054 5.95597 26.652 5.72869C26.5014 5.49858 26.321 5.30256 26.1108 5.14062C25.9034 4.97869 25.6676 4.85511 25.4034 4.76989C25.1392 4.68466 24.8494 4.64205 24.5341 4.64205C24.017 4.64205 23.5469 4.77557 23.1236 5.04261C22.7003 5.30966 22.3636 5.70312 22.1136 6.22301C21.8636 6.7429 21.7386 7.38068 21.7386 8.13636C21.7386 8.89205 21.8651 9.52983 22.1179 10.0497C22.3707 10.5696 22.7131 10.9631 23.1449 11.2301C23.5767 11.4972 24.0625 11.6307 24.6023 11.6307C25.1023 11.6307 25.5426 11.5241 25.9233 11.3111C26.3068 11.0952 26.6051 10.7912 26.8182 10.3991C27.0341 10.0043 27.142 9.53977 27.142 9.00568L27.4659 9.07386H24.8409V8.13636H28.1648V9.07386C28.1648 9.79261 28.0114 10.4176 27.7045 10.9489C27.4006 11.4801 26.9801 11.892 26.4432 12.1847C25.9091 12.4744 25.2955 12.6193 24.6023 12.6193C23.8295 12.6193 23.1506 12.4375 22.5653 12.0739C21.983 11.7102 21.5284 11.1932 21.2017 10.5227C20.8778 9.85227 20.7159 9.05682 20.7159 8.13636C20.7159 7.44602 20.8082 6.82528 20.9929 6.27415C21.1804 5.72017 21.4446 5.24858 21.7855 4.85938C22.1264 4.47017 22.5298 4.17188 22.9957 3.96449C23.4616 3.7571 23.9744 3.65341 24.5341 3.65341C24.9943 3.65341 25.4233 3.72301 25.821 3.86222C26.2216 3.99858 26.5781 4.19318 26.8906 4.44602C27.206 4.69602 27.4688 4.99574 27.679 5.34517C27.8892 5.69176 28.0341 6.0767 28.1136 6.5H27.0227ZM30.8441 3.77273V12.5H29.8384V3.77273H30.8441ZM36.8111 9.82386V5.95455H37.8168V12.5H36.8111V11.392H36.7429C36.5895 11.7244 36.3509 12.0071 36.027 12.2401C35.7031 12.4702 35.294 12.5852 34.7997 12.5852C34.3906 12.5852 34.027 12.4957 33.7088 12.3168C33.3906 12.1349 33.1406 11.8622 32.9588 11.4986C32.777 11.1321 32.6861 10.6705 32.6861 10.1136V5.95455H33.6918V10.0455C33.6918 10.5227 33.8253 10.9034 34.0923 11.1875C34.3622 11.4716 34.706 11.6136 35.1236 11.6136C35.3736 11.6136 35.6278 11.5497 35.8864 11.4219C36.1477 11.294 36.3665 11.098 36.5426 10.8338C36.7216 10.5696 36.8111 10.233 36.8111 9.82386ZM42.3178 12.6364C41.7269 12.6364 41.2085 12.4957 40.7624 12.2145C40.3192 11.9332 39.9727 11.5398 39.7227 11.0341C39.4755 10.5284 39.3519 9.9375 39.3519 9.26136C39.3519 8.57955 39.4755 7.98437 39.7227 7.47585C39.9727 6.96733 40.3192 6.57244 40.7624 6.29119C41.2085 6.00994 41.7269 5.86932 42.3178 5.86932C42.9087 5.86932 43.4258 6.00994 43.869 6.29119C44.315 6.57244 44.6616 6.96733 44.9087 7.47585C45.1587 7.98437 45.2837 8.57955 45.2837 9.26136C45.2837 9.9375 45.1587 10.5284 44.9087 11.0341C44.6616 11.5398 44.315 11.9332 43.869 12.2145C43.4258 12.4957 42.9087 12.6364 42.3178 12.6364ZM42.3178 11.733C42.7667 11.733 43.136 11.6179 43.4258 11.3878C43.7156 11.1577 43.93 10.8551 44.0692 10.4801C44.2085 10.1051 44.2781 9.69886 44.2781 9.26136C44.2781 8.82386 44.2085 8.41619 44.0692 8.03835C43.93 7.66051 43.7156 7.35511 43.4258 7.12216C43.136 6.8892 42.7667 6.77273 42.3178 6.77273C41.869 6.77273 41.4996 6.8892 41.2099 7.12216C40.9201 7.35511 40.7056 7.66051 40.5664 8.03835C40.4272 8.41619 40.3576 8.82386 40.3576 9.26136C40.3576 9.69886 40.4272 10.1051 40.5664 10.4801C40.7056 10.8551 40.9201 11.1577 41.2099 11.3878C41.4996 11.6179 41.869 11.733 42.3178 11.733ZM47.8246 8.5625V12.5H46.8189V5.95455H47.7905V6.97727H47.8757C48.0291 6.64489 48.2621 6.37784 48.5746 6.17614C48.8871 5.97159 49.2905 5.86932 49.7848 5.86932C50.228 5.86932 50.6158 5.96023 50.9482 6.14205C51.2805 6.32102 51.5391 6.59375 51.7237 6.96023C51.9084 7.32386 52.0007 7.78409 52.0007 8.34091V12.5H50.995V8.40909C50.995 7.89489 50.8615 7.49432 50.5945 7.20739C50.3274 6.91761 49.9609 6.77273 49.495 6.77273C49.174 6.77273 48.8871 6.84233 48.6342 6.98153C48.3842 7.12074 48.1868 7.32386 48.0419 7.59091C47.897 7.85795 47.8246 8.18182 47.8246 8.5625ZM63.3157 6.5C63.2219 6.21307 63.0984 5.95597 62.945 5.72869C62.7944 5.49858 62.614 5.30256 62.4038 5.14062C62.1964 4.97869 61.9606 4.85511 61.6964 4.76989C61.4322 4.68466 61.1424 4.64205 60.8271 4.64205C60.31 4.64205 59.8398 4.77557 59.4165 5.04261C58.9933 5.30966 58.6566 5.70312 58.4066 6.22301C58.1566 6.7429 58.0316 7.38068 58.0316 8.13636C58.0316 8.89205 58.158 9.52983 58.4109 10.0497C58.6637 10.5696 59.006 10.9631 59.4379 11.2301C59.8697 11.4972 60.3555 11.6307 60.8952 11.6307C61.3952 11.6307 61.8356 11.5241 62.2163 11.3111C62.5998 11.0952 62.8981 10.7912 63.1112 10.3991C63.3271 10.0043 63.435 9.53977 63.435 9.00568L63.7589 9.07386H61.1339V8.13636H64.4577V9.07386C64.4577 9.79261 64.3043 10.4176 63.9975 10.9489C63.6935 11.4801 63.2731 11.892 62.7362 12.1847C62.2021 12.4744 61.5884 12.6193 60.8952 12.6193C60.1225 12.6193 59.4435 12.4375 58.8583 12.0739C58.2759 11.7102 57.8214 11.1932 57.4947 10.5227C57.1708 9.85227 57.0089 9.05682 57.0089 8.13636C57.0089 7.44602 57.1012 6.82528 57.2859 6.27415C57.4734 5.72017 57.7376 5.24858 58.0785 4.85938C58.4194 4.47017 58.8228 4.17188 59.2887 3.96449C59.7546 3.7571 60.2674 3.65341 60.8271 3.65341C61.2873 3.65341 61.7163 3.72301 62.114 3.86222C62.5146 3.99858 62.8711 4.19318 63.1836 4.44602C63.4989 4.69602 63.7617 4.99574 63.9719 5.34517C64.1822 5.69176 64.3271 6.0767 64.4066 6.5H63.3157ZM68.7905 12.6364C68.1996 12.6364 67.6811 12.4957 67.2351 12.2145C66.7919 11.9332 66.4453 11.5398 66.1953 11.0341C65.9482 10.5284 65.8246 9.9375 65.8246 9.26136C65.8246 8.57955 65.9482 7.98437 66.1953 7.47585C66.4453 6.96733 66.7919 6.57244 67.2351 6.29119C67.6811 6.00994 68.1996 5.86932 68.7905 5.86932C69.3814 5.86932 69.8984 6.00994 70.3416 6.29119C70.7876 6.57244 71.1342 6.96733 71.3814 7.47585C71.6314 7.98437 71.7564 8.57955 71.7564 9.26136C71.7564 9.9375 71.6314 10.5284 71.3814 11.0341C71.1342 11.5398 70.7876 11.9332 70.3416 12.2145C69.8984 12.4957 69.3814 12.6364 68.7905 12.6364ZM68.7905 11.733C69.2393 11.733 69.6087 11.6179 69.8984 11.3878C70.1882 11.1577 70.4027 10.8551 70.5419 10.4801C70.6811 10.1051 70.7507 9.69886 70.7507 9.26136C70.7507 8.82386 70.6811 8.41619 70.5419 8.03835C70.4027 7.66051 70.1882 7.35511 69.8984 7.12216C69.6087 6.8892 69.2393 6.77273 68.7905 6.77273C68.3416 6.77273 67.9723 6.8892 67.6825 7.12216C67.3928 7.35511 67.1783 7.66051 67.0391 8.03835C66.8999 8.41619 66.8303 8.82386 66.8303 9.26136C66.8303 9.69886 66.8999 10.1051 67.0391 10.4801C67.1783 10.8551 67.3928 11.1577 67.6825 11.3878C67.9723 11.6179 68.3416 11.733 68.7905 11.733ZM74.2972 3.77273V12.5H73.2915V3.77273H74.2972ZM78.6108 12.6364C78.0653 12.6364 77.5838 12.4986 77.1662 12.223C76.7486 11.9446 76.4219 11.5526 76.1861 11.0469C75.9503 10.5384 75.8324 9.9375 75.8324 9.24432C75.8324 8.55682 75.9503 7.96023 76.1861 7.45455C76.4219 6.94886 76.75 6.55824 77.1705 6.28267C77.5909 6.0071 78.0767 5.86932 78.6278 5.86932C79.054 5.86932 79.3906 5.94034 79.6378 6.08239C79.8878 6.22159 80.0781 6.38068 80.2088 6.55966C80.3423 6.7358 80.446 6.88068 80.5199 6.99432H80.6051V3.77273H81.6108V12.5H80.6392V11.4943H80.5199C80.446 11.6136 80.3409 11.7642 80.2045 11.946C80.0682 12.125 79.8736 12.2855 79.6207 12.4276C79.3679 12.5668 79.0313 12.6364 78.6108 12.6364ZM78.7472 11.733C79.1506 11.733 79.4915 11.6278 79.7699 11.4176C80.0483 11.2045 80.2599 10.9105 80.4048 10.5355C80.5497 10.1577 80.6222 9.72159 80.6222 9.22727C80.6222 8.73864 80.5511 8.31108 80.4091 7.9446C80.267 7.57528 80.0568 7.28835 79.7784 7.08381C79.5 6.87642 79.1563 6.77273 78.7472 6.77273C78.321 6.77273 77.9659 6.8821 77.6818 7.10085C77.4006 7.31676 77.1889 7.6108 77.0469 7.98295C76.9077 8.35227 76.8381 8.76705 76.8381 9.22727C76.8381 9.69318 76.9091 10.1165 77.0511 10.4972C77.196 10.875 77.4091 11.1761 77.6903 11.4006C77.9744 11.6222 78.3267 11.733 78.7472 11.733Z" fill="#878494"/>
<defs>
<clipPath id="clip0_487_363">
<rect width="16" height="16" fill="white"/>
</clipPath>
</defs>
</svg>
