<svg xmlns="http://www.w3.org/2000/svg" width="2080pt" height="672" viewBox="0 0 2080 504">
  <path fill="#e4d7e9" d="M607 96c15.57.1 31.16-.24 46.73.28.16 99.2.01 198.51.07 297.72 0 3-.06 6-.11 9-8.85.69-17.77.31-26.69.4-13.74-.09-27.49.21-41.22-.24-.3-6.38-.23-12.77-.21-19.16 0-89.67.01-179.33-.01-269 .13-6.13-.86-12.77.65-18.63 6.85-.73 13.89-.25 20.79-.37Zm133-.03c18.84.2 37.71-.25 56.54.22 1.19 8.96.66 17.81.73 26.81.01 74.64-.03 149.33.06 223.96 6.89.38 13.77.18 20.67.26 27 .01 54 0 81 .01 7.14.06 14.17-.44 21.28.5.61 3.75.97 7.47.83 11.27-.47 14.64.08 29.3-.37 43.93-7.58.63-15.14.45-22.74.47H745c-5.62.04-11.23 0-16.84-.42-.06-1.99-.14-3.99-.17-5.98.02-93.67.01-187.33.01-281 .05-5.01-.37-10.05-.07-15.04.19-1.58.22-3.31 1.48-4.46 3.41-.74 7.11-.5 10.59-.53Zm582 .03c15.66.1 31.34-.22 46.99.21.27 3.26.54 6.51.54 9.79-.02 62.33-.01 124.67.02 187 .31 15.36-1.64 31.66-7.63 45.92-7.13 17.15-18.49 32.44-33.49 43.49-14.41 11.16-31.64 17.61-49.59 20.18-6.99.92-13.81.81-20.84.81-13.67-.01-27.33.03-41-.06-15.9-.23-31.71-4.12-45.8-11.53-16.92-8.5-30.99-22.09-40.78-38.23-6.68-10.79-10.92-23.22-13.16-35.67-1.88-11.41-1.68-23.37-1.71-34.91.03-55.33-.05-110.67 0-166 .12-6.71-.79-13.14.55-19.81 3.63-.4 7.24-.71 10.9-.63 19.02.37 38.02-.21 57.05.35.42 6.03.42 12.05.37 18.09 0 57.67-.01 115.33 0 173 .03 5.72-.39 11.26.84 16.81 1.49 6.65 3.51 13 7.14 18.82 8.58 14.12 24.06 23.68 40.6 24.66 6.31.33 12.69.42 19 0 8.88-.58 17.43-3.6 24.9-8.4 12.01-7.89 20.36-20.88 22.76-35.03.96-6.12.74-12.67.76-18.86-.01-57 .01-114-.01-171 .07-6.41-.9-12.51.86-18.6 6.81-.78 13.86-.28 20.73-.4Zm142.36.42c3.39-.86 7.15-.76 10.64-.77 16.33.16 32.68-.03 49.01.25 1.04 2.33 2.12 4.63 3.07 7 25.55 62.47 51.05 124.98 76.58 187.47 1.89 4.44 3.26 9.19 5.54 13.44 1.34 3.35 5.87 2.33 8.75 2.68 25.66-62.53 51.15-125.2 76.76-187.77 3.31-7.96 5.77-15.61 10.18-22.89 19.96.03 39.97-.51 59.92.25 3.43 46.01 7.62 91.96 11.37 137.95 1.92 19.98 3.09 40.01 5.08 59.98 2.14 24.8 4.26 49.6 6.22 74.41.78 11.64 2.49 22.98 2.41 34.64-12.95.54-25.93.28-38.89.33-7.87-.16-15.71.2-23.55-.38-2.01-16.91-2.18-34.05-3.52-51.01-1.67-20.88-2.92-41.78-4.37-62.67-1.86-23.23-2.79-46.58-5.11-69.77-2.98 5.32-4.94 11-7.29 16.6-21.19 50.86-42.3 101.76-63.28 152.7-1.79 4.14-3.18 8.65-5.54 12.49-1.06 2.2-4.39 1.96-6.47 2.15-9.61.01-19.22-.25-28.84-.02-3.83-.03-8.1.38-11.83-.65-1.41-1.26-2.32-3.22-3.12-4.91-23.27-56.45-46.99-113.26-70.23-169.72-1.24-3.01-2.71-5.9-4.31-8.73-2.25 26.13-3.54 52.36-5.39 78.52-1.36 18.99-2.5 37.99-3.95 56.98-1.61 16-1.59 32.19-3.46 48.16-8.23.45-16.49.15-24.74.27-12.61-.16-25.28.38-37.87-.41.02-4.67.16-9.32.65-13.96 1.9-17.79 2.81-35.59 4.75-53.37 2.38-29.22 4.88-58.42 7.19-87.65 4.1-43.97 7.42-88 11.16-132.01.76-6.34.19-13.59 2.48-19.58ZM352 96.56c19.11.37 38.18-.21 57.3.35.44 6.03.42 12.05.37 18.09-.01 72 0 144 0 216-.09 5.3-.26 10.56.33 15.84 7.01.87 13.96.43 21 .46 31.33-.19 62.68.05 94-.15 2.66.01 5.25.43 7.87.84 1.01 8.05.37 15.93.48 24.01-.06 10.31.35 20.72-.42 31.01-7.64.54-15.27.37-22.93.39-52.33 0-104.67-.01-157 0-4.02.02-8.03-.13-12.05-.34-.13-3.35-.26-6.7-.25-10.06.01-92.33 0-184.67 0-277 .1-6.6-.8-12.37.5-18.7 3.58-.64 7.18-.81 10.8-.74Zm640 .13c16.44.02 32.89-.2 49.33.2.12 2.7.26 5.4.29 8.11-.04 96.67-.01 193.33-.02 290-.02 2.72-.15 5.43-.26 8.14-10.44.41-20.9.21-31.34.26-12.3-.16-24.65.38-36.93-.4-.46-6.67-.25-13.32-.28-20V115c.05-6.06-.62-11.66.52-17.68 6.36-1.23 12.23-.57 18.69-.63Z"/>
  <path fill="#fff" d="M592.99 98.33c19.62.18 39.24.02 58.86.09.42 5.86.46 11.71.42 17.58.01 89 0 178-.07 267 .01 5.93.11 11.85-.15 17.78-21.59.1-43.19.13-64.78-.01-.15-98.9.04-197.88-.09-296.78.12-1.61-.04-3.62.72-5.08 1.58-.56 3.44-.52 5.09-.58Zm148.01.04c17.86.15 35.73-.07 53.59.1.21 77.49.07 155.03.12 232.53-.04 5.99-.11 11.96.41 17.93 9.56.73 19.25.28 28.88.38 31.53.07 63.07-.03 94.6.1.12 17.11.1 34.23.03 51.33-55.52.23-111.1.05-166.63.11-7.18-.04-14.35.12-21.52-.12-.08-89.55.01-179.16-.02-268.73-.01-9.34.08-18.67-.17-28.01.08-1.63-.15-3.65.56-5.15 3.24-.76 6.83-.46 10.15-.47Zm561.58.25c19.73-.52 39.67.01 59.43-.24 1.58.1 3.65-.19 5.09.52.67 3.94.25 8.11.31 12.1 0 57.33.07 114.67.05 172-.09 12.57.57 24.45-1.75 36.91-4.72 23.9-18.45 46.23-38.09 60.74-12.47 9.73-27.43 15.94-42.88 19-8.65 1.76-16.86 1.08-25.74 1.2-16.67-.07-33.36.15-50.03-.1-17.82-1.27-35.44-8.46-49.89-18.85-13.8-10.18-25.14-24.12-32.2-39.76-6.26-13.94-8.87-28.92-9.12-44.14-.1-66.25.15-132.52-.13-198.77 21.59-.01 43.18-.17 64.76.09.18 6.23.16 12.45.15 18.68.01 60.65-.02 121.38 0 182.02 1.38 11.76 6.09 23.52 14.03 32.43 9.87 11.15 24.49 17.92 39.39 18.12 5.71.09 11.44.17 17.13-.21 12.51-1.13 24.72-6.74 33.54-15.73 9.95-9.77 15.71-23.75 16.22-37.63.66-8.02-.26-15.98.17-24 .42-18.99-.47-38.01.12-57-.4-15.33.34-30.66-.18-46-.27-6.68.36-13.32.14-20-.54-14.66.1-29.35-.41-44.01-.09-2.44-.27-4.93-.11-7.37Zm184.42-.33c11.81.07 23.63-.12 35.44.15 3.4 5.98 5.93 12.31 8.48 18.67 24.24 59.4 48.53 118.78 72.76 178.18 1.74 4 2.97 8.88 5.78 12.27 2.75 1.59 6.76.99 9.82.95 2.84-5.76 5.11-11.74 7.55-17.67 22.53-55.14 45.07-110.28 67.6-165.42 3.85-9.26 6.86-18.32 11.99-27.02 18.83-.16 37.66-.05 56.5-.06.93 6.06 1.08 12.16 1.59 18.26 3.02 34.12 5.74 68.26 8.68 102.39 1.19 18.06 3.5 36.01 4.53 54.08 2.43 28.31 4.66 56.62 7.23 84.92.8 9.29 1.39 18.59 2.49 27.86.61 4.97.72 9.95.54 14.96-19.54.04-39.09.12-58.63-.04-1.23-22.27-3.25-44.49-4.32-66.77-1-12.99-2.05-25.96-2.72-38.97-1.21-19.35-3.17-38.62-3.97-58-.44-8.27-.34-16.17-2.81-24.18-3.44 5.88-5.67 12.15-8.3 18.4-21.69 52.3-43.39 104.6-65.09 156.9-1.7 4.24-3.41 8.46-5.35 12.59-12.59.26-25.19.01-37.79.15-2.36-.03-4.95.12-7.24-.53-1.7-2.82-2.72-6.09-4-9.12-21.83-52.83-43.72-105.64-65.59-158.45-2.86-6.8-5.3-13.44-8.96-19.86-3.01 10.23-2.17 20.24-3.28 31.07-1.21 21.23-2.95 42.45-4.38 63.67-1.29 22.45-3.32 44.87-4.36 67.34-.53 8.56-1.39 17.09-1.72 25.67-19.63.37-39.29.1-58.92.12 1.02-19.28 2.93-38.59 4.62-57.83 4.22-52 8.7-103.99 13.16-155.98 1.59-23.37 4.02-46.65 5.77-70 .62-6.16.84-12.46 2.11-18.52 6.92-.38 13.87-.09 20.79-.18Z"/>
  <path fill="#e046e7" d="M313.49 98.83c.2 7.39.12 14.78.13 22.17 0 91 0 182 .01 273-.02 2.75-.08 5.49-.17 8.23-5.26-4.32-10.31-8.78-14.66-14.04-30.56-33.18-51.18-76.55-55.13-121.67-1.66-15.05-1.93-30.48.29-45.49 3.8-31.37 16.18-61.7 34.97-87.07 9.71-13.14 21.24-25.59 34.56-35.13Z"/>
  <path fill="#fff" d="M343.19 99.45c2.89-.41 5.9-.32 8.81-.31 18.48.16 36.98-.11 55.46.17.25 7.9.18 15.79.19 23.69 0 66 0 132-.02 198 .02 9.36-.11 18.74.26 28.09 41.18.6 82.41-.04 123.6.33.08 17.1.1 34.21.04 51.31-6.85.23-13.68.09-20.53.12H363c-6.8-.03-13.59.13-20.39-.17-.06-95.55.03-191.14-.03-286.68.2-4.67-.85-10.09.61-14.55Zm631.6-.19c21.57-.07 43.16-.19 64.73.07.36 7.22.37 14.44.35 21.67-.05 93.24.03 186.56-.09 279.79-21.5.09-43.01.13-64.51-.03-.12-93.56-.02-187.19-.05-280.76.17-6.93-.38-13.82-.43-20.74Z"/>
  <path fill="#e046e7" d="M1791.26 98.68c10.03 6.93 19.08 14.75 27.34 23.71 14.28 14.41 25.86 31.95 35.05 49.97 9.39 19.16 15.16 40.23 17.66 61.38 4.87 40.43-2.51 81.73-20.26 118.31-8.78 18.41-20.45 35.31-34.39 50.18-.57-4.4-.98-8.82-1.42-13.24-7.41-88.89-15.01-177.86-22.45-266.75-.75-7.86-1.49-15.66-1.53-23.56Zm135.13 9.65c4.1 4.61 7.23 9.88 9.83 15.45 6.69 14.44 11.63 29.6 14.94 45.16 2.42 10.81 4.06 21.97 4.48 33.04.27 13.11.46 26.04-1.87 39.01-4.56 26.24-13.83 52.1-28.13 74.64-11.77 18.04-26.34 33.89-46.17 43.08 9.78-25.7 15.76-52.35 18.13-79.74 1.35-12.21.89-24.68.87-36.96-.89-24.6-5.96-49.51-16.75-71.75-4-8.6-9.54-17.91-11.18-27.3 1.32-6.11 5.26-10.64 10.26-14.16 8.2-5.88 17.07-10.71 26.37-14.61 6.33-2.67 12.28-5.21 19.22-5.86Zm-1742.38 7.22c4.35.63 8.67 2.25 12.82 3.67 11.06 3.92 22.78 8.67 32.32 15.6 4.1 3 8.22 7.79 8.02 13.17-.68 6.65-4.14 13.38-6.63 19.55-8.17 18.98-13.58 38.72-14.3 59.46-.16 8-.07 16-.05 24 .38 20.79 3.86 41.8 8.77 61.98 4.07 16.87 10.1 32.87 16.83 48.83-17.22-6.5-31.17-18.85-42.94-32.7-9.48-11.58-17.41-24.66-23.8-38.18-9.41-20.72-16.23-43.19-18.26-65.91-2.61-31.23 2.31-62.63 13.26-91.93 2.35-5.55 4.66-11.82 8.64-16.41 1.44-1.71 3.34-1.27 5.32-1.13ZM1979 254.23c9.56-1.89 19.98-.06 29.3 2.42 8.37 1.95 16.36 4.97 24.29 8.21-.02 4.81-.22 9.55-1.41 14.23-6.38 26.13-18.63 50.88-34.6 72.46-17.05 22.5-40.58 39.88-65.84 52.17-12.72 5.91-25.8 10.54-39.7 12.69-7.86 1.42-16.08 1.39-24.06 1.18-4.9-.15-9.58-1.24-14.3-2.49 20.3-11.64 38.79-25.54 55.63-41.78 15.5-15.72 29.78-31.99 40.76-51.27 7.63-12.92 12.84-26.96 16.4-41.5 1.64-6.22 2.75-12.9 5.27-18.83 1.59-3.62 4.24-6.65 8.26-7.49Zm-1840.79 10.5c4.65 1.44 6.7 5.47 8.38 9.68 3.79 10.29 6.14 20.99 10.71 31.14 11.49 26.9 30.97 49.22 52.34 68.79 14.78 12.7 30.55 25.05 47.69 34.34 4.96 2.93 10.26 5.06 15.01 8.32-21.68 7.7-46.88 3.87-68.33-2.9-17.01-5.68-33.38-13.69-47.97-24.16-6.55-4.67-13.22-9.4-19.03-14.95-5.57-5.46-11.1-10.91-15.98-17.01-12.06-14.59-21.23-30.89-28.83-48.18-4.35-9.98-7.88-20.12-8.81-31.05 8.89-5.58 19.6-8.78 29.59-11.85 7.77-2.04 17.35-4.57 25.23-2.17Z"/>
</svg>
