<?xml version="1.0" standalone="no"?>
<!DOCTYPE svg PUBLIC "-//W3C//DTD SVG 20010904//EN"
 "http://www.w3.org/TR/2001/REC-SVG-20010904/DTD/svg10.dtd">
<svg version="1.0" xmlns="http://www.w3.org/2000/svg"
 width="1244.000000pt" height="1244.000000pt" viewBox="0 0 1244.000000 1244.000000"
 preserveAspectRatio="xMidYMid meet">
<metadata>
Created by potrace 1.14, written by Peter Selinger 2001-2017
</metadata>
<g transform="translate(0.000000,1244.000000) scale(0.100000,-0.100000)"
fill="#000000" stroke="none">
<path d="M5788 12435 c-2 -1 -36 -5 -76 -9 -41 -3 -77 -8 -81 -11 -4 -2 -23
-7 -42 -10 -72 -12 -216 -63 -302 -106 -336 -168 -634 -456 -912 -879 -63 -95
-155 -248 -180 -297 -1 -2 -26 4 -56 12 -194 53 -493 124 -634 149 -96 18
-206 36 -250 41 -27 4 -57 8 -65 10 -8 2 -46 7 -85 10 -38 3 -83 8 -100 10
-170 23 -674 24 -790 1 -11 -2 -47 -7 -80 -10 -90 -10 -299 -55 -400 -86 -445
-138 -765 -371 -987 -721 -20 -31 -47 -67 -60 -80 -78 -77 -193 -247 -256
-380 -83 -173 -130 -343 -162 -584 -9 -69 -6 -477 4 -525 2 -14 7 -47 11 -75
33 -274 163 -734 287 -1015 102 -231 171 -376 251 -525 60 -112 94 -174 182
-325 39 -66 262 -417 278 -435 5 -5 41 -57 81 -115 l73 -105 -69 -100 c-140
-201 -368 -555 -368 -573 0 -4 17 -15 38 -24 45 -21 259 -134 288 -153 12 -7
66 -90 120 -184 54 -94 102 -171 105 -171 3 0 37 51 74 113 55 89 262 405 298
452 8 10 13 5 122 -120 231 -266 311 -351 625 -665 237 -238 323 -320 502
-482 l85 -77 8 -73 c5 -40 9 -75 10 -78 1 -4 15 -110 20 -150 1 -13 7 -45 20
-120 6 -35 17 -102 20 -123 7 -51 16 -105 25 -147 10 -48 38 -196 47 -245 36
-210 180 -762 278 -1059 19 -60 34 -111 32 -113 -3 -2 -13 -6 -23 -8 -11 -2
-73 -18 -139 -35 -66 -16 -133 -32 -150 -35 -16 -3 -38 -8 -47 -11 -18 -5 -46
-11 -93 -19 -16 -3 -37 -8 -45 -10 -8 -2 -31 -7 -50 -10 -19 -3 -46 -7 -60
-10 -37 -7 -79 -13 -135 -21 -27 -3 -58 -8 -67 -9 -9 -2 -48 -6 -85 -10 -37
-3 -77 -8 -88 -10 -33 -7 -284 -18 -385 -17 -122 0 -264 9 -362 23 -43 5 -90
12 -105 14 -208 28 -525 143 -681 249 -152 102 -179 137 -231 296 -26 80 -63
232 -57 237 2 3 0 19 -6 36 -5 18 -11 116 -13 218 l-4 186 -107 154 c-58 84
-108 159 -111 166 -2 6 -64 30 -136 53 -73 23 -159 51 -191 62 -42 13 -62 16
-69 9 -20 -20 -13 -571 8 -634 2 -6 7 -30 10 -52 33 -229 156 -511 311 -711
21 -28 52 -68 69 -90 16 -21 56 -73 88 -114 32 -41 71 -91 85 -110 177 -231
439 -417 755 -534 158 -59 381 -113 542 -131 33 -4 68 -9 77 -11 32 -6 263
-17 358 -17 140 -1 388 13 510 27 116 14 136 17 160 21 14 3 43 7 65 10 50 6
252 44 380 71 11 2 31 6 45 9 14 3 79 18 144 35 66 17 120 29 121 28 1 -2 32
-62 68 -133 115 -230 264 -474 384 -630 58 -75 82 -105 103 -130 206 -243 423
-423 647 -534 84 -42 223 -93 288 -106 22 -5 42 -9 45 -10 5 -2 84 -13 135
-20 17 -3 149 -5 295 -5 296 -1 379 9 535 61 399 136 755 442 1079 928 102
153 174 277 279 481 44 85 83 156 87 158 4 1 41 -7 81 -18 252 -72 619 -154
824 -184 137 -21 151 -22 240 -31 39 -4 78 -9 87 -10 87 -17 464 -23 638 -10
198 13 232 18 398 51 357 73 648 204 883 400 98 82 176 165 279 300 124 162
144 189 151 194 4 3 40 53 81 111 208 297 305 632 305 1049 0 251 -27 459 -98
741 -97 386 -280 836 -511 1252 -28 51 -61 111 -74 134 -80 145 -334 539 -457
709 l-36 50 35 50 c88 121 267 395 370 564 l113 185 -22 18 c-12 10 -42 35
-66 55 -162 137 -227 182 -261 183 -19 0 -42 2 -50 3 -20 4 -116 14 -210 22
-41 3 -79 7 -84 8 -10 1 -19 -11 -187 -266 -68 -104 -126 -188 -130 -188 -3 0
-37 37 -75 83 -38 45 -71 84 -75 87 -3 3 -27 30 -54 60 -131 150 -273 299
-520 545 -335 335 -461 453 -753 704 -73 63 -135 124 -137 135 -3 12 -16 86
-31 166 -48 269 -150 708 -219 945 -72 246 -162 522 -199 610 l-15 35 102 30
c164 49 330 95 378 103 13 3 51 12 84 20 51 13 149 34 245 52 14 3 36 7 50 10
14 3 42 7 62 9 21 3 63 10 95 15 32 6 85 13 118 17 33 3 68 8 78 10 132 24
676 24 817 -1 14 -2 54 -9 90 -15 100 -16 118 -19 220 -46 190 -51 390 -143
524 -244 100 -74 109 -86 159 -221 102 -272 119 -631 48 -996 -8 -42 -6 -48
14 -43 6 1 24 4 40 6 17 2 74 11 127 20 l97 17 93 -48 c51 -26 135 -70 186
-97 52 -27 95 -48 97 -46 17 18 27 401 14 528 -25 248 -71 422 -166 619 -75
157 -156 274 -287 415 -20 22 -36 44 -36 49 0 15 -136 190 -192 247 -172 175
-382 315 -593 395 -38 15 -79 30 -90 35 -92 37 -290 88 -405 105 -64 9 -107
16 -125 20 -134 26 -746 26 -905 0 -14 -2 -50 -7 -80 -10 -30 -4 -67 -8 -82
-11 -16 -2 -40 -6 -55 -8 -25 -4 -170 -29 -248 -42 -16 -3 -58 -11 -93 -19
-34 -8 -77 -17 -95 -20 -56 -10 -267 -64 -431 -111 -87 -25 -162 -42 -165 -37
-4 4 -38 62 -75 128 -373 658 -824 1066 -1306 1183 -117 28 -177 35 -305 32
-155 -2 -158 -2 -277 2 -60 3 -109 4 -110 3z m354 -405 c179 -58 370 -182 538
-350 72 -71 182 -193 212 -235 4 -5 18 -23 31 -40 75 -96 213 -314 290 -456
l46 -85 -37 -13 c-185 -66 -587 -246 -918 -412 l-211 -105 -184 93 c-199 100
-494 239 -600 283 -36 15 -81 35 -100 43 -41 19 -285 117 -351 141 -27 10 -48
22 -48 28 0 6 23 49 51 97 261 445 555 764 850 924 60 32 181 84 218 93 9 2
32 8 51 13 41 11 84 6 162 -19z m-3457 -1375 c17 -2 59 -7 95 -10 64 -6 307
-39 365 -50 153 -29 311 -65 475 -107 107 -28 205 -53 218 -55 12 -3 22 -10
22 -15 0 -5 -27 -84 -60 -175 -58 -157 -121 -349 -170 -513 -12 -41 -26 -86
-31 -100 -25 -70 -156 -612 -174 -720 -3 -19 -9 -44 -12 -55 -3 -11 -8 -29 -9
-40 -13 -79 -73 -397 -75 -399 -11 -7 -220 -194 -319 -285 -147 -135 -565
-553 -696 -696 -56 -60 -114 -123 -129 -140 -15 -16 -77 -87 -138 -157 -60
-71 -113 -128 -117 -128 -7 0 -102 139 -212 310 -468 728 -750 1427 -814 2015
-18 164 -8 433 20 575 16 79 61 219 92 287 30 66 39 77 121 138 240 178 584
293 961 321 48 4 89 8 91 10 5 5 458 -5 496 -11z m1961 -506 c262 -107 362
-151 551 -240 l86 -41 -96 -61 c-217 -139 -278 -179 -402 -264 -231 -158 -349
-242 -537 -383 -60 -44 -108 -75 -108 -70 0 16 96 386 125 480 14 47 28 94 30
105 7 30 152 455 170 498 8 20 19 37 23 37 5 0 75 -27 158 -61z m2982 -176
c60 -184 127 -400 136 -445 3 -13 21 -83 40 -155 18 -73 32 -133 30 -133 -3 0
-44 29 -92 63 -215 157 -502 351 -721 489 l-123 78 103 49 c57 27 190 86 294
131 105 44 204 87 220 95 17 8 35 14 41 14 5 1 38 -83 72 -186z m-1501 -554
c139 -78 569 -346 666 -415 26 -19 49 -34 52 -34 6 0 65 -40 75 -50 3 -3 25
-19 50 -35 256 -170 957 -698 1071 -806 15 -15 133 -117 183 -159 17 -14 51
-43 76 -65 25 -22 72 -63 105 -90 33 -27 65 -54 71 -60 6 -5 55 -50 109 -100
240 -219 703 -682 835 -835 12 -14 36 -41 54 -60 75 -81 286 -331 286 -338 0
-7 -188 -228 -283 -332 -27 -30 -91 -100 -141 -155 -50 -55 -194 -203 -319
-330 l-228 -230 7 160 c3 88 7 259 8 380 1 218 1 220 -25 276 -34 73 -93 131
-166 165 l-58 28 -1290 0 c-1277 1 -1289 1 -1311 -19 -12 -11 -77 -73 -145
-137 l-124 -118 2 -167 c1 -93 2 -175 2 -183 1 -14 134 -15 1188 -15 968 0
1191 -2 1214 -13 42 -21 51 -55 44 -173 -11 -184 -23 -355 -30 -429 -2 -25 -7
-76 -10 -115 -4 -38 -8 -80 -10 -92 -2 -12 -7 -57 -10 -100 -4 -43 -9 -82 -12
-86 -3 -4 -95 -80 -206 -168 -111 -88 -211 -168 -222 -177 -122 -99 -545 -401
-798 -570 -281 -189 -725 -462 -749 -462 -33 0 -644 385 -956 602 -172 120
-470 335 -482 348 -3 3 -34 27 -70 54 -196 149 -691 553 -704 575 -11 17 -21
139 -41 471 -23 408 -24 1174 0 1526 2 27 6 99 9 159 7 110 12 186 21 280 2
28 7 79 10 115 3 36 8 81 10 100 2 19 7 64 10 100 3 36 7 76 10 90 2 14 7 52
10 85 3 33 8 67 11 76 4 14 249 224 389 334 21 17 43 35 50 40 47 44 486 372
670 501 306 216 786 525 955 617 30 16 62 36 70 43 19 18 23 18 67 -7z m-2941
-2266 c-3 -38 -8 -115 -11 -173 -3 -58 -8 -141 -11 -185 -8 -119 -12 -1079 -5
-1158 4 -38 4 -70 0 -72 -14 -9 -432 437 -643 685 -103 122 -105 125 -87 145
9 11 60 70 111 130 52 61 101 117 109 126 9 8 45 48 80 88 108 121 451 481
459 481 2 0 1 -30 -2 -67z m7100 -1465 c16 -24 31 -45 34 -48 3 -3 43 -63 89
-135 46 -71 99 -153 116 -180 40 -61 165 -274 165 -281 0 -2 12 -23 26 -45 34
-54 204 -395 239 -479 15 -36 35 -83 45 -105 88 -197 207 -585 243 -795 31
-175 41 -286 41 -440 0 -198 -20 -337 -70 -492 -58 -181 -74 -203 -209 -297
-97 -67 -203 -122 -320 -166 -92 -35 -289 -89 -360 -99 -16 -3 -50 -8 -75 -11
-25 -4 -56 -8 -70 -11 -134 -23 -634 -23 -781 1 -13 2 -49 6 -79 10 -260 29
-673 115 -977 205 l-112 33 19 51 c39 111 148 465 156 510 2 16 9 36 13 45 5
9 11 30 14 46 3 17 17 75 32 130 66 255 157 703 189 930 16 114 12 107 104
185 283 244 490 437 777 725 271 271 346 351 553 587 85 97 158 175 162 173 4
-2 20 -23 36 -47z m-6147 -2020 c59 -46 118 -91 132 -101 13 -9 85 -61 159
-115 157 -114 435 -305 600 -411 63 -41 146 -94 183 -119 l69 -44 -102 -49
c-56 -27 -104 -49 -106 -49 -2 0 -39 -16 -81 -36 -136 -63 -558 -235 -625
-254 -27 -8 -28 -8 -58 88 -17 53 -33 104 -35 112 -2 8 -21 78 -44 155 -40
139 -99 367 -107 415 -3 14 -9 41 -15 61 -5 21 -13 57 -18 80 -5 24 -18 90
-30 147 -11 56 -23 117 -26 135 -3 17 -8 40 -11 50 -3 9 -3 17 1 17 3 0 55
-37 114 -82z m3736 -140 c-3 -10 -33 -139 -80 -338 -29 -129 -169 -607 -181
-619 -2 -2 -19 4 -38 13 -20 9 -53 23 -73 30 -21 8 -126 52 -233 99 -107 47
-222 96 -255 110 -78 33 -115 51 -115 57 0 3 40 29 88 59 166 103 594 392 745
503 125 92 132 96 139 97 4 1 5 -5 3 -11z m-1577 -1217 c177 -89 410 -201 417
-201 2 0 36 -15 77 -34 92 -43 482 -204 514 -212 13 -3 24 -11 24 -16 0 -11
-121 -254 -173 -348 -57 -103 -212 -347 -253 -400 -168 -212 -210 -260 -345
-386 -170 -157 -386 -278 -569 -318 -49 -11 -63 -10 -131 11 -426 129 -833
554 -1166 1218 l-75 149 69 23 c37 13 75 26 83 30 8 3 20 7 25 9 21 5 295 114
424 169 186 78 466 209 688 320 114 58 191 91 197 86 6 -5 93 -50 194 -100z"/>
<path d="M11468 8965 c-2 -2 -25 -6 -53 -9 -27 -4 -59 -9 -70 -11 -11 -2 -46
-6 -77 -10 -32 -4 -61 -13 -66 -19 -5 -6 -17 -42 -27 -81 -10 -38 -22 -80 -26
-93 l-9 -22 -87 44 -88 44 -197 -101 c-170 -88 -199 -106 -216 -137 -10 -19
-42 -77 -70 -129 -48 -88 -55 -111 -31 -111 28 0 350 -176 418 -229 l23 -18
-72 -139 c-94 -180 -141 -266 -153 -281 -5 -7 -6 -13 -1 -14 5 0 18 -2 29 -4
11 -3 56 -9 100 -15 44 -6 91 -13 105 -15 14 -3 50 -7 80 -11 63 -7 48 2 221
-132 72 -57 138 -106 145 -109 8 -3 35 41 77 124 l64 129 34 -29 c19 -16 57
-51 84 -76 28 -25 58 -52 66 -58 13 -10 49 1 200 60 l184 72 67 195 c36 107
67 200 67 205 0 6 -96 82 -215 169 -163 121 -214 163 -209 175 5 13 47 159 60
211 12 48 45 215 45 229 0 27 -383 214 -402 196z"/>
<path d="M873 5488 c-43 -75 -205 -402 -253 -513 -131 -302 -257 -675 -285
-845 -3 -19 -10 -51 -15 -70 -21 -77 -28 -72 178 -139 l187 -62 65 -90 c110
-153 170 -231 171 -222 4 42 31 168 66 308 57 224 170 535 272 745 16 33 27
60 24 60 -3 0 0 6 6 13 6 8 33 58 60 113 27 54 64 126 83 160 l35 61 -46 64
c-25 36 -50 72 -56 81 -5 9 -37 54 -70 101 -48 68 -70 90 -110 111 -48 24
-140 75 -237 129 -26 15 -49 27 -51 27 -3 0 -14 -15 -24 -32z"/>
</g>
</svg>
