<svg width="66" height="67" viewBox="0 0 66 67" fill="none" xmlns="http://www.w3.org/2000/svg">
<path d="M65.9632 33.4999C65.9632 51.7151 51.1968 66.4815 32.9816 66.4815C14.7664 66.4815 0 51.7151 0 33.4999C0 15.2847 14.7664 0.518311 32.9816 0.518311C51.1968 0.518311 65.9632 15.2847 65.9632 33.4999Z" fill="#E041E7"/>
<path opacity="0.44" d="M24.7316 19.0378H36.2758C36.4788 19.0378 36.6752 19.1098 36.8302 19.2409L44.3258 25.5809C44.5187 25.744 44.6299 25.9838 44.6299 26.2364V44.4802C44.6299 46.9994 44.6011 47.1769 42.017 47.1769H24.7316C22.1474 47.1769 22.1187 46.9994 22.1187 44.4802V21.7345C22.1187 19.2153 22.1474 19.0378 24.7316 19.0378Z" fill="white"/>
<rect x="24.9326" y="31.7004" width="12.6626" height="2.81391" rx="0.57232" fill="white"/>
<rect x="24.9326" y="37.3281" width="7.03476" height="2.81391" rx="0.57232" fill="white"/>
</svg>
