<svg width="479" height="479" viewBox="0 0 479 479" fill="none" xmlns="http://www.w3.org/2000/svg">
<path d="M166.693 259.008C153.049 208.087 148.952 159.822 153.326 122.97C155.514 104.541 159.814 89.0185 166.055 77.4538C172.295 65.8917 180.425 58.3683 190.26 55.7333C200.094 53.0982 210.897 55.5483 222.082 62.4415C233.269 69.3361 244.754 80.6289 255.863 95.4952C278.077 125.223 298.662 169.07 312.307 219.991C325.951 270.913 330.047 319.178 325.673 356.03C323.485 374.459 319.186 389.981 312.945 401.546C306.705 413.108 298.574 420.632 288.74 423.267C278.906 425.902 268.103 423.452 256.918 416.558C245.73 409.664 234.246 398.371 223.137 383.505C200.922 353.777 180.337 309.93 166.693 259.008Z" stroke="#3E3C46" stroke-width="2"/>
<path d="M174.223 277.188C147.864 231.533 131.416 185.973 126.103 149.244C123.446 130.877 123.582 114.77 126.617 101.985C129.652 89.2014 135.558 79.83 144.375 74.7395C153.192 69.649 164.261 69.2196 176.849 72.983C189.44 76.7472 203.456 84.6826 218.034 96.1672C247.186 119.133 278.418 156.158 304.777 201.813C331.136 247.467 347.584 293.028 352.897 329.756C355.554 348.124 355.418 364.23 352.383 377.016C349.348 389.799 343.442 399.17 334.625 404.261C325.808 409.351 314.739 409.781 302.151 406.017C289.56 402.253 275.544 394.318 260.966 382.833C231.814 359.868 200.582 322.843 174.223 277.188Z" stroke="#3E3C46" stroke-width="2"/>
<path d="M219.991 312.307C169.07 298.662 125.223 278.077 95.4953 255.863C80.6289 244.754 69.3362 233.269 62.4416 222.082C55.5484 210.897 53.0983 200.094 55.7333 190.26C58.3684 180.426 65.8917 172.295 77.4539 166.055C89.0185 159.814 104.541 155.514 122.97 153.327C159.822 148.952 208.087 153.049 259.009 166.693C309.93 180.337 353.777 200.922 383.505 223.137C398.371 234.246 409.664 245.731 416.558 256.918C423.452 268.103 425.902 278.906 423.267 288.74C420.632 298.574 413.108 306.705 401.546 312.945C389.982 319.186 374.459 323.486 356.03 325.673C319.178 330.047 270.913 325.951 219.991 312.307Z" stroke="#3E3C46" stroke-width="2"/>
<path d="M259.009 312.307C208.087 325.951 159.822 330.047 122.97 325.673C104.541 323.486 89.0186 319.186 77.4539 312.945C65.8918 306.705 58.3684 298.574 55.7334 288.74C53.0983 278.906 55.5485 268.103 62.4416 256.918C69.3363 245.731 80.629 234.246 95.4953 223.137C125.223 200.922 169.07 180.337 219.992 166.693C270.913 153.049 319.178 148.952 356.03 153.327C374.459 155.514 389.982 159.814 401.546 166.055C413.108 172.295 420.632 180.426 423.267 190.26C425.902 200.094 423.452 210.897 416.559 222.082C409.664 233.269 398.371 244.754 383.505 255.863C353.777 278.077 309.93 298.662 259.009 312.307Z" stroke="#3E3C46" stroke-width="2"/>
<path d="M304.777 277.188C278.418 322.842 247.186 359.868 218.035 382.833C203.456 394.318 189.44 402.253 176.849 406.017C164.262 409.781 153.193 409.351 144.376 404.261C135.558 399.17 129.652 389.799 126.617 377.016C123.582 364.23 123.446 348.124 126.103 329.756C131.416 293.027 147.865 247.467 174.223 201.812C200.582 156.158 231.814 119.132 260.966 96.167C275.544 84.6824 289.56 76.747 302.151 72.9828C314.739 69.2194 325.808 69.6488 334.625 74.7393C343.442 79.8298 349.348 89.2012 352.383 101.984C355.418 114.77 355.554 130.876 352.897 149.244C347.585 185.973 331.136 231.533 304.777 277.188Z" stroke="#3E3C46" stroke-width="2"/>
<path d="M312.307 259.009C298.662 309.93 278.077 353.777 255.863 383.505C244.754 398.371 233.269 409.664 222.082 416.558C210.897 423.452 200.094 425.902 190.26 423.267C180.426 420.632 172.295 413.108 166.055 401.546C159.814 389.981 155.514 374.459 153.327 356.03C148.952 319.178 153.049 270.913 166.693 219.991C180.337 169.07 200.922 125.223 223.137 95.4952C234.246 80.6289 245.731 69.3362 256.918 62.4415C268.103 55.5484 278.906 53.0982 288.74 55.7333C298.574 58.3683 306.705 65.8917 312.945 77.4538C319.186 89.0185 323.486 104.541 325.673 122.97C330.047 159.822 325.951 208.087 312.307 259.009Z" stroke="#3E3C46" stroke-width="2"/>
<path d="M186.202 292.798C148.925 255.522 121.245 215.771 106.607 181.669C99.2867 164.615 95.2493 149.022 94.8721 135.886C94.4949 122.753 97.7745 112.173 104.974 104.974C112.173 97.7745 122.753 94.4949 135.886 94.872C149.022 95.2493 164.615 99.2867 181.669 106.607C215.771 121.245 255.522 148.925 292.798 186.202C330.075 223.479 357.756 263.229 372.393 297.332C379.714 314.386 383.751 329.978 384.128 343.114C384.505 356.247 381.226 366.828 374.027 374.027C366.828 381.226 356.247 384.505 343.114 384.128C329.978 383.751 314.386 379.714 297.332 372.393C263.229 357.756 223.479 330.075 186.202 292.798Z" stroke="#35333F" stroke-width="2"/>
<path d="M239.5 314.875C186.782 314.875 139.101 306.34 104.637 292.577C87.4019 285.694 73.5215 277.523 63.9663 268.501C54.4131 259.482 49.2505 249.681 49.2505 239.5C49.2505 229.319 54.4131 219.518 63.9663 210.498C73.5215 201.477 87.4019 193.306 104.637 186.423C139.101 172.66 186.782 164.125 239.5 164.125C292.217 164.125 339.898 172.66 374.363 186.423C391.598 193.306 405.478 201.477 415.033 210.498C424.586 219.518 429.749 229.319 429.749 239.5C429.749 249.681 424.586 259.482 415.033 268.502C405.478 277.523 391.598 285.694 374.363 292.577C339.898 306.34 292.217 314.875 239.5 314.875Z" stroke="#35333F" stroke-width="2"/>
<path d="M292.798 292.798C255.521 330.075 215.771 357.755 181.668 372.393C164.614 379.713 149.022 383.751 135.886 384.128C122.753 384.505 112.172 381.226 104.973 374.026C97.7741 366.827 94.4945 356.247 94.8717 343.114C95.2489 329.978 99.2863 314.385 106.606 297.331C121.244 263.229 148.925 223.479 186.201 186.202C223.478 148.925 263.229 121.245 297.331 106.607C314.385 99.2865 329.978 95.2491 343.113 94.8719C356.247 94.4947 366.827 97.7743 374.026 104.973C381.225 112.172 384.505 122.753 384.128 135.886C383.751 149.022 379.713 164.615 372.393 181.668C357.755 215.771 330.075 255.521 292.798 292.798Z" stroke="#35333F" stroke-width="2"/>
<path d="M277.187 304.777C231.533 331.136 185.972 347.584 149.244 352.897C130.876 355.554 114.77 355.418 101.984 352.383C89.201 349.348 79.8296 343.442 74.7391 334.625C69.6486 325.808 69.2192 314.739 72.9826 302.151C76.7468 289.56 84.6823 275.544 96.1668 260.966C119.132 231.814 156.157 200.582 201.812 174.223C247.467 147.864 293.027 131.416 329.756 126.103C348.123 123.446 364.23 123.582 377.015 126.617C389.799 129.652 399.17 135.558 404.261 144.375C409.351 153.192 409.78 164.261 406.017 176.849C402.253 189.44 394.317 203.456 382.833 218.034C359.867 247.186 322.842 278.418 277.187 304.777Z" stroke="#35333F" stroke-width="2"/>
<path d="M314.875 239.5C314.875 292.218 306.34 339.898 292.577 374.363C285.694 391.598 277.523 405.478 268.502 415.033C259.482 424.587 249.681 429.749 239.5 429.749C229.319 429.749 219.518 424.587 210.499 415.033C201.477 405.478 193.306 391.598 186.423 374.363C172.66 339.898 164.125 292.218 164.125 239.5C164.125 186.782 172.66 139.102 186.423 104.637C193.306 87.4022 201.477 73.5218 210.499 63.9666C219.518 54.4134 229.319 49.2507 239.5 49.2507C249.681 49.2507 259.482 54.4134 268.502 63.9666C277.523 73.5218 285.694 87.4022 292.577 104.637C306.34 139.102 314.875 186.782 314.875 239.5Z" stroke="#35333F" stroke-width="2"/>
<path d="M202.313 303.911C156.74 277.599 119.822 246.445 96.9527 217.416C85.5145 202.896 77.657 188.992 73.941 176.563C70.2267 164.139 70.697 153.377 75.6054 144.875C80.5139 136.374 89.5989 130.585 102.215 127.59C114.837 124.594 130.808 124.446 149.101 127.093C185.675 132.383 231.115 148.778 276.688 175.089C322.261 201.401 359.179 232.555 382.048 261.584C393.486 276.104 401.343 290.008 405.059 302.437C408.774 314.861 408.303 325.623 403.395 334.125C398.486 342.626 389.401 348.415 376.785 351.41C364.163 354.406 348.193 354.554 329.9 351.908C293.325 346.617 247.885 330.222 202.313 303.911Z" stroke="#F3B619" stroke-width="4"/>
<circle cx="239.5" cy="239.5" r="15.7308" fill="#F3B619"/>
<g filter="url(#filter0_f_831_605)">
<circle cx="239.5" cy="239.5" r="42.5656" fill="#F3B619"/>
</g>
<defs>
<filter id="filter0_f_831_605" x="0.93457" y="0.934326" width="477.131" height="477.131" filterUnits="userSpaceOnUse" color-interpolation-filters="sRGB">
<feFlood flood-opacity="0" result="BackgroundImageFix"/>
<feBlend mode="normal" in="SourceGraphic" in2="BackgroundImageFix" result="shape"/>
<feGaussianBlur stdDeviation="98" result="effect1_foregroundBlur_831_605"/>
</filter>
</defs>
</svg>
